:SAMPLES-PER-SECOND 30
:FRAME-RANGE 1-2009
:FULLY-SPECIFIED
:DEGREES
1633
root  -51.8701 38.7811 11.8294 177.131 -49.3882 -177.614
RightUpLeg  -5.79661 -2.36082 8.38398
RightLeg  19.9321 -1.12415 0.432599
RightFoot  -13.292 -0.216588 -7.44311
RightToes  2.96424e-010 1.2921e-014 -6.02303e-014
Spine  -5.6196 -0.612069 9.82242
Spine1  9.15903 0.907587 -5.03476
HEad  22.9967 -56.2428 -14.4108
LeftShoulder1  1.09621 -0.611478 -21.8891
LeftArm  4.91622 4.39281 -45.3304
LeftForeArm  36.7567 -3.37466 -13.3504
LeftHand  0.124024 4.40201 -19.3164
RightShoulder  1.6688 4.65006 14.1605
RightArm  -48.5032 46.8741 39.941
RightForeArm  -15.673 3.75929 -8.55958
RightHand  131.838 -77.9933 -141.612
LeftUpLeg  -23.8557 -3.93472 4.70846
LeftLeg  56.6969 3.90331 6.88413
LeftFoot  -0.184647 0.468955 -4.78979
LeftToes  -1.2485e-010 1.20979e-011 -1.0929e-011
1634
root  -52.9132 38.7866 10.8151 178.459 -46.7796 -179.227
RightUpLeg  -3.119 -2.17337 7.56407
RightLeg  19.4313 0.765354 0.522115
RightFoot  -15.0822 -0.361799 -7.94781
RightToes  2.96424e-010 1.2921e-014 -6.02303e-014
Spine  -5.91084 -0.373836 8.63168
Spine1  9.35773 1.12248 -5.5044
HEad  21.1188 -57.4383 -13.141
LeftShoulder1  1.05075 -0.420856 -22.1129
LeftArm  2.72587 7.75604 -44.389
LeftForeArm  37.7153 -1.48064 -13.3864
LeftHand  0.36364 2.08152 -13.3896
RightShoulder  1.6755 4.75595 13.9504
RightArm  -49.2222 47.3721 38.9891
RightForeArm  -17.5485 3.94473 -8.59084
RightHand  148.171 -73.832 -157.118
LeftUpLeg  -24.9557 -4.56574 4.09891
LeftLeg  48.448 6.25997 7.93103
LeftFoot  -2.13201 0.2895 -3.43555
LeftToes  -1.2485e-010 1.20979e-011 -1.0929e-011
1635
root  -54.0089 38.6077 9.76211 179.218 -44.3302 -179.901
RightUpLeg  -1.26165 -1.70512 7.12652
RightLeg  20.4631 2.25171 0.601736
RightFoot  -17.5784 -0.541535 -7.74731
RightToes  2.96424e-010 1.2921e-014 -6.02303e-014
Spine  -6.5394 -0.225271 8.1261
Spine1  9.64927 1.18284 -5.58877
HEad  19.3947 -58.0863 -11.6769
LeftShoulder1  1.06066 -0.468565 -22.0135
LeftArm  0.654461 11.4894 -43.7565
LeftForeArm  38.9871 0.60023 -13.2604
LeftHand  0.337678 -0.453994 -6.70058
RightShoulder  1.68453 4.72368 14.1662
RightArm  -48.7565 47.0847 38.5347
RightForeArm  -19.2197 3.63213 -8.28488
RightHand  151.769 -71.6941 -160.689
LeftUpLeg  -25.8479 -4.0678 4.08417
LeftLeg  39.0541 6.95921 6.37946
LeftFoot  -3.31268 0.212425 -2.74337
LeftToes  -1.2485e-010 1.20979e-011 -1.0929e-011
1636
root  -55.0914 38.4232 8.68105 -179.906 -42.5314 179.657
RightUpLeg  0.688292 -1.19932 6.66122
RightLeg  20.7625 3.32434 0.831742
RightFoot  -19.6124 -0.770405 -8.80274
RightToes  2.96424e-010 1.2921e-014 -6.02303e-014
Spine  -7.57012 -0.263033 7.30215
Spine1  10.1267 0.912034 -5.42115
HEad  18.1113 -58.153 -10.4772
LeftShoulder1  0.964295 -0.0761338 -22.4481
LeftArm  0.203119 14.3754 -42.9796
LeftForeArm  39.3036 2.60129 -13.3826
LeftHand  0.0333877 -1.96766 -0.359753
RightShoulder  1.66374 4.50993 14.5009
RightArm  -47.4967 45.9391 38.4984
RightForeArm  -20.1613 3.00618 -7.69632
RightHand  151.978 -71.3232 -160.986
LeftUpLeg  -26.4604 -2.78183 3.86817
LeftLeg  28.146 5.4003 3.45476
LeftFoot  -2.39981 0.351549 -4.31153
LeftToes  -1.2485e-010 1.20979e-011 -1.0929e-011
1637
root  -56.1172 38.3636 7.56358 -178.688 -40.5913 178.811
RightUpLeg  3.16898 -0.354902 5.80672
RightLeg  19.544 4.1822 0.971811
RightFoot  -20.6254 -0.884956 -9.16009
RightToes  2.96424e-010 1.2921e-014 -6.02303e-014
Spine  -8.59501 -0.311661 5.75647
Spine1  10.6602 0.768247 -5.48948
HEad  17.143 -58.1147 -9.04101
LeftShoulder1  0.936732 0.0273521 -22.5105
LeftArm  -1.31012 17.6451 -42.6774
LeftForeArm  40.3314 4.75796 -13.0764
LeftHand  -0.304959 -2.47955 4.71023
RightShoulder  1.6705 4.30673 15.2199
RightArm  -46.0787 43.7988 39.0121
RightForeArm  -20.5424 2.31183 -7.07146
RightHand  146.184 -72.222 -156.383
LeftUpLeg  -26.4109 -1.04372 2.88319
LeftLeg  16.7245 1.9966 0.994185
LeftFoot  -2.47283 0.410231 -5.09758
LeftToes  -1.2485e-010 1.20979e-011 -1.0929e-011
1638
root  -57.0911 38.3495 6.47388 -177.485 -38.9703 177.794
RightUpLeg  5.87279 0.671533 4.80064
RightLeg  17.7004 4.56016 0.936075
RightFoot  -21.1192 -0.937042 -9.26312
RightToes  2.96424e-010 1.2921e-014 -6.02303e-014
Spine  -9.26561 -0.536712 3.80864
Spine1  11.3455 0.657093 -5.6519
HEad  15.9634 -58.1547 -6.93437
LeftShoulder1  0.858856 0.31536 -22.6657
LeftArm  -2.02619 20.5369 -42.274
LeftForeArm  40.2107 6.24081 -12.918
LeftHand  -0.402956 -1.26866 7.17769
RightShoulder  1.65096 3.88586 16.3209
RightArm  -44.366 41.047 39.2785
RightForeArm  -20.4035 0.821245 -6.51724
RightHand  130.512 -75.284 -142.424
LeftUpLeg  -26.2076 0.0932078 1.35137
LeftLeg  7.06372 -1.19307 0.140449
LeftFoot  -4.44156 0.420414 -6.52826
LeftToes  -1.2485e-010 1.20979e-011 -1.0929e-011
